<svg xmlns="http://www.w3.org/2000/svg" xmlns:xlink="http://www.w3.org/1999/xlink" viewBox="0 0 2285 1080"><defs><style>.a{clip-path:url(#b);}.b{fill:rgba(50,6,62,0.05);}.c{fill:#e95050;opacity:0.37;}.c,.d,.e{stroke:#707070;}.d{fill:#27dcca;opacity:0.34;}.e{fill:#8a8080;}.f{fill:#4d0b5d;}</style><clipPath id="b"><rect width="2285" height="1080"/></clipPath></defs><g id="a" class="a"><rect class="f" width="2285" height="1080"/><ellipse class="b" cx="165.5" cy="161" rx="165.5" ry="161" transform="translate(539 143)"/><path class="c" d="M478.55,485.779s108.158-442.7,233.455,0S828.732,25.426,976.587,327.037s365.746,126.994,233.455,285.736S1108.879,1073.126,1116.661,1089" transform="translate(-482.55 -8)"/><path class="d" d="M0,188.849C128.731,25.905,374.168,91.146,439.976,508.6S680.647-210.845,834.827,242.141" transform="translate(1760.977 282.204) rotate(42)"/><path class="e" d="M907.795,569.794s73.615-93.573,73.615,0,77.946,25.52,77.946,25.52,53.958-114.336,67.155-65.96-45.5,202.066,23.782,65.96-25.982-250.945,34.643-140.359,128.972,158.455,205.519,201.864,171.219-87.025,171.219-87.025,81.934,46.45,66.949,87.025" transform="translate(-98.647 414.361)"/></g></svg>